<?xml version="1.0" encoding="UTF-8"?>
<svg version="1.1" xmlns="http://www.w3.org/2000/svg" width="1024" height="1024">
<path d="M0 0 C337.92 0 675.84 0 1024 0 C1024 337.92 1024 675.84 1024 1024 C686.08 1024 348.16 1024 0 1024 C0 686.08 0 348.16 0 0 Z " fill="#FDFDFD" transform="translate(0,0)"/>
<path d="M0 0 C5.77043965 4.50402637 9.64588023 10.60436317 11.734375 17.59765625 C11.93151015 21.2749851 11.88223516 24.91922402 11.734375 28.59765625 C13.30904541 28.5819458 13.30904541 28.5819458 14.91552734 28.56591797 C18.80302533 28.52977172 22.69050841 28.50677547 26.578125 28.48779297 C28.26206966 28.47772308 29.94599679 28.46406637 31.62988281 28.44677734 C34.04757001 28.42257199 36.46502643 28.41118329 38.8828125 28.40234375 C39.6380722 28.39202118 40.39333191 28.38169861 41.17147827 28.37106323 C43.0273148 28.37066307 44.8825678 28.47542909 46.734375 28.59765625 C49.48104359 31.34432484 49.34576149 33.4410275 49.8828125 37.2734375 C49.98020721 37.94674606 50.07760193 38.62005463 50.177948 39.31376648 C50.38673883 40.76020211 50.5919891 42.20715233 50.79406738 43.65454102 C51.32126791 47.42597398 51.87465642 51.19351392 52.4296875 54.9609375 C52.53921753 55.70683136 52.64874756 56.45272522 52.76159668 57.22122192 C53.79782989 64.19235887 55.06675975 71.10805799 56.47802734 78.01293945 C57.52647021 83.19777354 58.21199263 88.33204192 58.734375 93.59765625 C59.724375 93.92765625 60.714375 94.25765625 61.734375 94.59765625 C61.71117187 95.68304688 61.68796875 96.7684375 61.6640625 97.88671875 C61.6452923 99.33202432 61.62709344 100.7773374 61.609375 102.22265625 C61.58423828 103.29193359 61.58423828 103.29193359 61.55859375 104.3828125 C61.51700963 108.91548109 62.20811059 112.28753128 63.734375 116.59765625 C64.06493021 119.10648552 64.33169603 121.5797105 64.546875 124.09765625 C65.49532979 133.9991423 67.23166452 143.74967812 69.05786133 153.5234375 C73.12935798 176.4638478 73.12935798 176.4638478 67.734375 185.59765625 C66.05078125 187.4609375 66.05078125 187.4609375 64.296875 188.91015625 C63.72066406 189.40128906 63.14445313 189.89242187 62.55078125 190.3984375 C58.86385168 192.83260391 55.07820308 192.72747238 50.75773621 192.74482727 C48.92196266 192.75556023 48.92196266 192.75556023 47.04910278 192.76651001 C45.69574 192.76935004 44.34237694 192.7720618 42.98901367 192.7746582 C41.56137426 192.78092583 40.13373648 192.7875729 38.70610046 192.79457092 C34.02152637 192.81557519 29.33695208 192.82596876 24.65234375 192.8359375 C23.03784989 192.83998618 21.4233562 192.84410313 19.80886269 192.84828758 C12.2243046 192.86732995 4.6397562 192.88156392 -2.94482118 192.88989955 C-11.69327356 192.89967383 -20.44147305 192.92600219 -29.18983632 192.96640044 C-35.95685152 192.99657477 -42.72379426 193.0113696 -49.49087542 193.01468056 C-53.53042151 193.01702921 -57.56969713 193.0259656 -61.60917091 193.05114174 C-65.41039029 193.07445129 -69.21116164 193.07864438 -73.01243401 193.06838036 C-74.40437436 193.06788561 -75.79633699 193.07418816 -77.18820953 193.0879364 C-90.26689524 193.2098529 -90.26689524 193.2098529 -96.265625 188.59765625 C-101.25622054 183.33729879 -102.67423418 178.69977124 -102.51953125 171.59375 C-102.18264181 167.61845461 -101.4087728 163.77579397 -100.61230469 159.86962891 C-99.18886469 152.67623108 -98.2650381 145.43062019 -97.328125 138.16015625 C-96.01055978 127.99036639 -94.57000067 117.85404776 -92.91088867 107.73388672 C-91.11181914 96.74798654 -89.43212016 85.74437853 -87.75201416 74.73977661 C-87.37953648 72.30038542 -87.00639687 69.86109694 -86.6328125 67.421875 C-86.51439499 66.64780807 -86.39597748 65.87374115 -86.27397156 65.07621765 C-85.60093039 60.70028746 -84.89102905 56.33289101 -84.14453125 51.96875 C-83.23875856 46.62367025 -82.62013797 41.27393973 -82.14257812 35.875 C-81.92578125 33.87109375 -81.92578125 33.87109375 -81.265625 30.59765625 C-77.54021838 28.11405184 -75.63499527 28.36606955 -71.19140625 28.40234375 C-70.16565742 28.40658859 -70.16565742 28.40658859 -69.1191864 28.41091919 C-66.93865335 28.42209941 -64.75853355 28.44719934 -62.578125 28.47265625 C-61.09831323 28.48268887 -59.61849501 28.49181423 -58.13867188 28.5 C-54.514189 28.52203144 -50.88994734 28.55654623 -47.265625 28.59765625 C-47.14517822 27.64358887 -47.02473145 26.68952148 -46.90063477 25.70654297 C-46.73362061 24.45115723 -46.56660645 23.19577148 -46.39453125 21.90234375 C-46.23283447 20.65952637 -46.0711377 19.41670898 -45.90454102 18.13623047 C-44.25874034 9.02112346 -38.74577811 2.80442949 -31.265625 -2.40234375 C-20.80328965 -7.7778195 -9.80321559 -6.06785241 0 0 Z " fill="#FBFCFC" transform="translate(269.265625,380.40234375)"/>
<path d="M0 0 C5.77043965 4.50402637 9.64588023 10.60436317 11.734375 17.59765625 C11.93151015 21.2749851 11.88223516 24.91922402 11.734375 28.59765625 C13.30904541 28.5819458 13.30904541 28.5819458 14.91552734 28.56591797 C18.80302533 28.52977172 22.69050841 28.50677547 26.578125 28.48779297 C28.26206966 28.47772308 29.94599679 28.46406637 31.62988281 28.44677734 C34.04757001 28.42257199 36.46502643 28.41118329 38.8828125 28.40234375 C39.6380722 28.39202118 40.39333191 28.38169861 41.17147827 28.37106323 C43.0273148 28.37066307 44.8825678 28.47542909 46.734375 28.59765625 C49.48104359 31.34432484 49.34576149 33.4410275 49.8828125 37.2734375 C49.98020721 37.94674606 50.07760193 38.62005463 50.177948 39.31376648 C50.38673883 40.76020211 50.5919891 42.20715233 50.79406738 43.65454102 C51.32126791 47.42597398 51.87465642 51.19351392 52.4296875 54.9609375 C52.53921753 55.70683136 52.64874756 56.45272522 52.76159668 57.22122192 C53.79782989 64.19235887 55.06675975 71.10805799 56.47802734 78.01293945 C57.52647021 83.19777354 58.21199263 88.33204192 58.734375 93.59765625 C59.724375 93.92765625 60.714375 94.25765625 61.734375 94.59765625 C62.52305043 106.56799666 62.52305043 106.56799666 59.484375 110.53515625 C58.576875 111.21578125 57.669375 111.89640625 56.734375 112.59765625 C51.67774101 118.20095338 52.36954276 123.45298369 52.734375 130.59765625 C53.17763247 135.11521087 53.75046077 139.60654931 54.38842773 144.10058594 C54.67533049 146.12200243 54.95090242 148.14472691 55.22460938 150.16796875 C56.21422346 157.43406379 56.21422346 157.43406379 57.734375 164.59765625 C57.82636524 166.63767505 57.86439241 168.68057062 57.859375 170.72265625 C57.86195313 171.77710938 57.86453125 172.8315625 57.8671875 173.91796875 C57.734375 176.59765625 57.734375 176.59765625 56.734375 178.59765625 C56.074375 178.59765625 55.414375 178.59765625 54.734375 178.59765625 C54.734375 179.25765625 54.734375 179.91765625 54.734375 180.59765625 C27.014375 180.92765625 -0.705625 181.25765625 -29.265625 181.59765625 C-22.6016411 173.82300836 -22.6016411 173.82300836 -19.828125 171.16015625 C-17.45561701 168.82890927 -15.23392726 166.44270066 -13.078125 163.91015625 C-9.36697604 159.58755941 -5.33682683 155.61302047 -1.26489258 151.6340332 C1.59492055 148.89206037 1.59492055 148.89206037 3.734375 145.59765625 C2.744375 145.26765625 1.754375 144.93765625 0.734375 144.59765625 C0.095 143.75203125 -0.544375 142.90640625 -1.203125 142.03515625 C-4.81899577 139.15721829 -5.69662786 139.40494543 -10.140625 139.66015625 C-14.6553754 139.87726509 -16.98772259 139.71452541 -20.453125 136.72265625 C-23.95642127 133.19378848 -24.48151998 130.74800904 -24.640625 125.78515625 C-24.56634481 121.91330133 -24.41851867 119.89756306 -22.640625 116.41015625 C-17.2411983 113.51046413 -11.33694109 112.97225448 -5.265625 113.59765625 C-2.51534056 115.39505682 -0.73866142 116.65158341 0.734375 119.59765625 C0.85583493 121.42802912 0.90980685 123.26329758 0.921875 125.09765625 C0.93605469 126.07734375 0.95023437 127.05703125 0.96484375 128.06640625 C0.734375 130.59765625 0.734375 130.59765625 -1.265625 132.59765625 C-0.94564198 135.96088204 0.34442689 137.50791588 2.796875 139.72265625 C4.45703125 141.23046875 4.45703125 141.23046875 5.734375 142.59765625 C5.734375 143.25765625 5.734375 143.91765625 5.734375 144.59765625 C11.70046055 139.54192708 17.25364608 134.17191297 22.734375 128.59765625 C24.25265106 127.05347104 25.77346235 125.51177419 27.296875 123.97265625 C28.39322266 122.86083984 28.39322266 122.86083984 29.51171875 121.7265625 C31.69795604 119.63253909 33.98699641 117.78742974 36.359375 115.91015625 C38.31441196 114.30323181 38.31441196 114.30323181 39.734375 112.59765625 C40.01825322 109.55736608 40.01825322 109.55736608 38.734375 106.59765625 C38.48558594 105.39109375 38.23679687 104.18453125 37.98046875 102.94140625 C37.44129563 100.37838043 36.89962743 97.81587822 36.35546875 95.25390625 C35.79277226 91.94142879 35.61550869 88.9465852 35.734375 85.59765625 C38.15740627 88.02068752 38.22980634 89.27115802 38.8046875 92.60546875 C38.97871094 93.59160156 39.15273438 94.57773437 39.33203125 95.59375 C39.50605469 96.62628906 39.68007813 97.65882813 39.859375 98.72265625 C40.04113281 99.76292969 40.22289062 100.80320312 40.41015625 101.875 C40.85867383 104.44807453 41.29975556 107.02220396 41.734375 109.59765625 C45.27575257 107.63022427 48.25666444 105.83269838 50.734375 102.59765625 C50.87437967 99.20595089 50.87437967 99.20595089 50.13671875 95.4375 C49.97379082 94.38980942 49.97379082 94.38980942 49.80757141 93.32095337 C49.45011911 91.05504374 49.06144927 88.79574362 48.671875 86.53515625 C48.42146344 84.98787747 48.17309334 83.44026692 47.92675781 81.89233398 C47.43859987 78.84511253 46.93866572 75.80023841 46.42724609 72.75683594 C45.83951594 69.25235183 45.28574018 65.74393651 44.75390625 62.23046875 C43.68775201 54.31286878 43.68775201 54.31286878 41.734375 46.59765625 C41.734375 43.29765625 41.734375 39.99765625 41.734375 36.59765625 C32.494375 36.59765625 23.254375 36.59765625 13.734375 36.59765625 C13.60217354 42.63418289 13.60217354 42.63418289 15.734375 47.59765625 C16.02615808 50.36959554 16.09803816 52.0117545 14.609375 54.41015625 C11.83433689 56.16768039 9.94507755 56.06588371 6.734375 55.59765625 C3.734375 51.59765625 3.734375 51.59765625 4.734375 36.59765625 C-10.115625 36.59765625 -24.965625 36.59765625 -40.265625 36.59765625 C-39.770625 44.51765625 -39.770625 44.51765625 -39.265625 52.59765625 C-42.265625 55.59765625 -42.265625 55.59765625 -45.265625 55.97265625 C-48.265625 55.59765625 -48.265625 55.59765625 -50.140625 54.41015625 C-51.64895102 51.98007544 -51.62586122 50.40749873 -51.265625 47.59765625 C-50.605625 46.93765625 -49.945625 46.27765625 -49.265625 45.59765625 C-48.935625 42.62765625 -48.605625 39.65765625 -48.265625 36.59765625 C-56.515625 36.59765625 -64.765625 36.59765625 -73.265625 36.59765625 C-73.595625 40.55765625 -73.925625 44.51765625 -74.265625 48.59765625 C-75.07083675 55.8884826 -76.13146366 63.09489552 -77.5546875 70.2890625 C-79.73056084 81.61847062 -81.41777055 93.03089755 -83.17236328 104.43139648 C-83.76176089 108.26005542 -84.35516469 112.08807672 -84.94921875 115.91601562 C-86.80817008 127.9260726 -88.63976658 139.9382376 -90.3182373 151.97502136 C-90.97327711 156.65696176 -91.70891898 161.31440201 -92.515625 165.97265625 C-93.40701558 171.86954775 -93.91654825 176.03659502 -90.5579834 181.2467041 C-86.11645518 185.44352707 -79.3351371 184.27038838 -73.65039062 184.21289062 C-72.24890979 184.21639336 -70.84743294 184.22205366 -69.44596863 184.22970581 C-65.64619873 184.24394206 -61.84715351 184.22690442 -58.04745293 184.20342064 C-54.06862549 184.18329788 -50.08982773 184.18919193 -46.11096191 184.19152832 C-39.4294847 184.19147476 -32.74829042 184.17172715 -26.06689453 184.13964844 C-18.34546161 184.10275619 -10.62439928 184.09397302 -2.90288973 184.10094595 C4.52900916 184.10725419 11.96078114 184.09649074 19.39265442 184.07698059 C22.55363271 184.06881209 25.71454609 184.06609603 28.87553406 184.06767273 C32.59880312 184.06855257 36.32172075 184.05430911 40.04489708 184.0284462 C42.06085373 184.01788352 44.07687044 184.02195334 46.09284973 184.02645874 C47.29572128 184.01510895 48.49859283 184.00375916 49.73791504 183.99206543 C50.78134315 183.98833672 51.82477127 183.984608 52.89981842 183.9807663 C56.18147941 183.53722698 58.07590483 182.54236525 60.734375 180.59765625 C65.28682796 171.49275033 60.1711041 155.50138298 58.734375 145.84765625 C58.3028515 142.92690825 57.87369777 140.00588103 57.45043945 137.08392334 C57.18839323 135.27674764 56.92157781 133.47025469 56.64916992 131.66461182 C54.83865461 119.23234596 54.83865461 119.23234596 56.828125 115.6015625 C58.13020833 114.26692708 59.43229167 112.93229167 60.734375 111.59765625 C61.394375 111.92765625 62.054375 112.25765625 62.734375 112.59765625 C63.27709961 114.90405273 63.27709961 114.90405273 63.69921875 118.03125 C63.86405762 119.21058105 64.02889648 120.38991211 64.19873047 121.60498047 C64.32788849 122.57114288 64.32788849 122.57114288 64.45965576 123.55682373 C64.74374947 125.66729722 65.04207017 127.77534241 65.34423828 129.88330078 C66.11645095 135.27300441 66.87718173 140.66430935 67.63256836 146.05639648 C67.9575896 148.37380504 68.28524173 150.69082954 68.61328125 153.0078125 C68.71121475 153.71196793 68.80914825 154.41612335 68.91004944 155.14161682 C69.36606711 158.35057464 69.93681908 161.45890198 70.734375 164.59765625 C70.87849129 167.0531761 70.95491908 169.51308727 70.984375 171.97265625 C71.02304687 173.90238281 71.02304687 173.90238281 71.0625 175.87109375 C70.63960297 180.67399578 69.28435698 183.88224696 66.05078125 187.4609375 C65.47199219 187.93917969 64.89320313 188.41742187 64.296875 188.91015625 C63.72066406 189.40128906 63.14445313 189.89242187 62.55078125 190.3984375 C58.86385168 192.83260391 55.07820308 192.72747238 50.75773621 192.74482727 C48.92196266 192.75556023 48.92196266 192.75556023 47.04910278 192.76651001 C45.69574 192.76935004 44.34237694 192.7720618 42.98901367 192.7746582 C41.56137426 192.78092583 40.13373648 192.7875729 38.70610046 192.79457092 C34.02152637 192.81557519 29.33695208 192.82596876 24.65234375 192.8359375 C23.03784989 192.83998618 21.4233562 192.84410313 19.80886269 192.84828758 C12.2243046 192.86732995 4.6397562 192.88156392 -2.94482118 192.88989955 C-11.69327356 192.89967383 -20.44147305 192.92600219 -29.18983632 192.96640044 C-35.95685152 192.99657477 -42.72379426 193.0113696 -49.49087542 193.01468056 C-53.53042151 193.01702921 -57.56969713 193.0259656 -61.60917091 193.05114174 C-65.41039029 193.07445129 -69.21116164 193.07864438 -73.01243401 193.06838036 C-74.40437436 193.06788561 -75.79633699 193.07418816 -77.18820953 193.0879364 C-90.26689524 193.2098529 -90.26689524 193.2098529 -96.265625 188.59765625 C-101.25622054 183.33729879 -102.67423418 178.69977124 -102.51953125 171.59375 C-102.18264181 167.61845461 -101.4087728 163.77579397 -100.61230469 159.86962891 C-99.18886469 152.67623108 -98.2650381 145.43062019 -97.328125 138.16015625 C-96.01055978 127.99036639 -94.57000067 117.85404776 -92.91088867 107.73388672 C-91.11181914 96.74798654 -89.43212016 85.74437853 -87.75201416 74.73977661 C-87.37953648 72.30038542 -87.00639687 69.86109694 -86.6328125 67.421875 C-86.51439499 66.64780807 -86.39597748 65.87374115 -86.27397156 65.07621765 C-85.60093039 60.70028746 -84.89102905 56.33289101 -84.14453125 51.96875 C-83.23875856 46.62367025 -82.62013797 41.27393973 -82.14257812 35.875 C-81.92578125 33.87109375 -81.92578125 33.87109375 -81.265625 30.59765625 C-77.54021838 28.11405184 -75.63499527 28.36606955 -71.19140625 28.40234375 C-70.16565742 28.40658859 -70.16565742 28.40658859 -69.1191864 28.41091919 C-66.93865335 28.42209941 -64.75853355 28.44719934 -62.578125 28.47265625 C-61.09831323 28.48268887 -59.61849501 28.49181423 -58.13867188 28.5 C-54.514189 28.52203144 -50.88994734 28.55654623 -47.265625 28.59765625 C-47.14517822 27.64358887 -47.02473145 26.68952148 -46.90063477 25.70654297 C-46.73362061 24.45115723 -46.56660645 23.19577148 -46.39453125 21.90234375 C-46.23283447 20.65952637 -46.0711377 19.41670898 -45.90454102 18.13623047 C-44.25874034 9.02112346 -38.74577811 2.80442949 -31.265625 -2.40234375 C-20.80328965 -7.7778195 -9.80321559 -6.06785241 0 0 Z " fill="#090909" transform="translate(269.265625,380.40234375)"/>
<path d="M0 0 C2.42303127 2.42303127 2.49543134 3.67350177 3.0703125 7.0078125 C3.33134766 8.48701172 3.33134766 8.48701172 3.59765625 9.99609375 C3.85869141 11.54490234 3.85869141 11.54490234 4.125 13.125 C4.30675781 14.16527344 4.48851562 15.20554687 4.67578125 16.27734375 C5.12429883 18.85041828 5.56538056 21.42454771 6 24 C8.65061697 22.44497138 11.09608216 20.92313428 13.5 19 C16 17 16 17 18.5 15.5625 C21.43930264 13.72543585 23.62516796 11.51053673 26 9 C26.78867543 20.97034041 26.78867543 20.97034041 23.75 24.9375 C22.8425 25.618125 21.935 26.29875 21 27 C15.94336601 32.60329713 16.63516776 37.85532744 17 45 C17.44325747 49.51755462 18.01608577 54.00889306 18.65405273 58.50292969 C18.94095549 60.52434618 19.21652742 62.54707066 19.49023438 64.5703125 C20.47984846 71.83640754 20.47984846 71.83640754 22 79 C22.09199024 81.0400188 22.13001741 83.08291437 22.125 85.125 C22.12886719 86.70667969 22.12886719 86.70667969 22.1328125 88.3203125 C22 91 22 91 21 93 C20.34 93 19.68 93 19 93 C19 93.66 19 94.32 19 95 C-22.58 95.495 -22.58 95.495 -65 96 C-58.3360161 88.22535211 -58.3360161 88.22535211 -55.5625 85.5625 C-53.18999201 83.23125302 -50.96830226 80.84504441 -48.8125 78.3125 C-45.10135104 73.98990316 -41.07120183 70.01536422 -36.99926758 66.03637695 C-34.13945445 63.29440412 -34.13945445 63.29440412 -32 60 C-32.99 59.67 -33.98 59.34 -35 59 C-35.639375 58.154375 -36.27875 57.30875 -36.9375 56.4375 C-40.55337077 53.55956204 -41.43100286 53.80728918 -45.875 54.0625 C-50.3897504 54.27960884 -52.72209759 54.11686916 -56.1875 51.125 C-59.69079627 47.59613223 -60.21589498 45.15035279 -60.375 40.1875 C-60.30071981 36.31564508 -60.15289367 34.29990681 -58.375 30.8125 C-52.9755733 27.91280788 -47.07131609 27.37459823 -41 28 C-38.24971556 29.79740057 -36.47303642 31.05392716 -35 34 C-34.87854007 35.83037287 -34.82456815 37.66564133 -34.8125 39.5 C-34.79832031 40.4796875 -34.78414063 41.459375 -34.76953125 42.46875 C-35 45 -35 45 -37 47 C-36.68001698 50.36322579 -35.38994811 51.91025963 -32.9375 54.125 C-31.27734375 55.6328125 -31.27734375 55.6328125 -30 57 C-30 57.66 -30 58.32 -30 59 C-24.03391445 53.94427083 -18.48072892 48.57425672 -13 43 C-11.48172394 41.45581479 -9.96091265 39.91411794 -8.4375 38.375 C-7.70660156 37.63378906 -6.97570312 36.89257812 -6.22265625 36.12890625 C-4.03641896 34.03488284 -1.74737859 32.18977349 0.625 30.3125 C2.58003696 28.70557556 2.58003696 28.70557556 4 27 C4.28387822 23.95970983 4.28387822 23.95970983 3 21 C2.75121094 19.7934375 2.50242187 18.586875 2.24609375 17.34375 C1.70692063 14.78072418 1.16525243 12.21822197 0.62109375 9.65625 C0.05839726 6.34377254 -0.11886631 3.34892895 0 0 Z " fill="#12B4BB" transform="translate(305,466)"/>
<path d="M0 0 C3.96 0 7.92 0 12 0 C14.35547557 6.90843749 16.47040238 13.86446847 18.5 20.875 C18.79519531 21.88691406 19.09039062 22.89882813 19.39453125 23.94140625 C21.33255881 30.60924558 23.19439609 37.29512467 25 44 C26.23106188 40.02141722 27.45978381 36.04211645 28.6875 32.0625 C29.05109619 30.88437744 29.41469238 29.70625488 29.78930664 28.49243164 C32.10971773 20.95302456 34.38659546 13.40369982 36.53979492 5.81469727 C37.89421623 1.10578377 37.89421623 1.10578377 39 0 C41.01964199 -0.07244053 43.04167124 -0.08377188 45.0625 -0.0625 C46.71958984 -0.04896484 46.71958984 -0.04896484 48.41015625 -0.03515625 C49.26480469 -0.02355469 50.11945313 -0.01195312 51 0 C51.31453125 1.16015625 51.6290625 2.3203125 51.953125 3.515625 C54.13997113 11.5208905 56.40187199 19.45669852 59.0859375 27.3125 C60.01070622 30.03147813 60.89700626 32.75766497 61.75 35.5 C61.99234375 36.2734375 62.2346875 37.046875 62.484375 37.84375 C63 40 63 40 63 44 C63.66 44 64.32 44 65 44 C65.11601562 43.21109375 65.23203125 42.4221875 65.3515625 41.609375 C66.16161234 37.10042288 67.25297511 32.69007194 68.375 28.25 C68.71217041 26.91146973 68.71217041 26.91146973 69.05615234 25.54589844 C71.2670359 16.83925117 73.74279936 8.37565879 77 0 C80.96 0 84.92 0 89 0 C85.53859126 12.4689383 81.82692639 24.82814277 77.83764648 37.13867188 C75.64212087 43.93152898 73.57568399 50.73460784 71.69140625 57.62109375 C71 60 71 60 70 62 C65.71 62 61.42 62 57 62 C56.45730469 60.02257812 55.91460937 58.04515625 55.35546875 56.0078125 C54.81933778 54.05824534 54.28319804 52.10868058 53.74682617 50.15917969 C53.3788964 48.82107806 53.01137197 47.48286491 52.64428711 46.14453125 C48.97686168 31.85477537 48.97686168 31.85477537 44 18 C43.85304688 18.65742188 43.70609375 19.31484375 43.5546875 19.9921875 C41.84826162 27.22978692 39.66609306 34.22306552 37.27416992 41.25512695 C35.3091676 47.03357119 33.49355606 52.8382346 31.76171875 58.69140625 C31 61 31 61 30 62 C27.98035801 62.07244053 25.95832876 62.08377188 23.9375 62.0625 C22.83277344 62.05347656 21.72804688 62.04445313 20.58984375 62.03515625 C19.73519531 62.02355469 18.88054687 62.01195312 18 62 C13.0497452 47.22698831 8.46324752 32.39867752 4.36035156 17.36523438 C4.0815918 16.35009766 3.80283203 15.33496094 3.515625 14.2890625 C3.14872559 12.93868896 3.14872559 12.93868896 2.77441406 11.56103516 C2.03892374 8.96331837 2.03892374 8.96331837 0.90527344 6.41943359 C0 4 0 4 0 0 Z " fill="#070707" transform="translate(353,438)"/>
<path d="M0 0 C5.259375 -0.103125 10.51875 -0.20625 15.9375 -0.3125 C17.578396 -0.35802002 19.21929199 -0.40354004 20.90991211 -0.45043945 C29.88815643 -0.53553869 36.83906555 0.00803908 43.56591797 6.51464844 C48.12075499 11.65485255 49.41455833 15.61717346 49.24609375 22.3359375 C48.72700304 27.9553004 47.54878919 33.04027066 43.1875 36.875 C35.35069188 42.09953875 28.82016759 43.16972951 19.625 43.0625 C15.850625 43.0315625 15.850625 43.0315625 12 43 C12 49.27 12 55.54 12 62 C8.04 62 4.08 62 0 62 C0 41.54 0 21.08 0 0 Z " fill="#060606" transform="translate(686,438)"/>
<path d="M0 0 C4.52001357 2.34693012 4.52001357 2.34693012 6.25 4.6875 C6.25 5.3475 6.25 6.0075 6.25 6.6875 C6.91 6.6875 7.57 6.6875 8.25 6.6875 C8.58 5.6975 8.91 4.7075 9.25 3.6875 C14.71426616 -0.35130542 18.44915333 -1.75845716 25.25 -1.3125 C30.77360073 -0.00373639 34.10342144 1.77883745 37.25 6.6875 C38.86301773 9.91353545 38.37053599 13.43460038 38.34765625 16.9765625 C38.3462413 17.79498627 38.34482635 18.61341003 38.34336853 19.45663452 C38.3377629 22.07529325 38.32520948 24.69386704 38.3125 27.3125 C38.30748572 29.08593627 38.30292269 30.85937387 38.29882812 32.6328125 C38.28779164 36.98440782 38.27052325 41.3359395 38.25 45.6875 C34.62 45.6875 30.99 45.6875 27.25 45.6875 C27.24589111 44.77460205 27.24178223 43.8617041 27.23754883 42.92114258 C27.21050598 39.51915222 27.16136138 36.11894939 27.09741211 32.7175293 C27.07428007 31.24824053 27.0598476 29.77878708 27.05444336 28.30932617 C27.04511721 26.19085655 27.00405873 24.07495935 26.95703125 21.95703125 C26.9413208 20.68448486 26.92561035 19.41193848 26.90942383 18.10083008 C26.08393288 13.82789823 24.66851069 12.30832704 21.25 9.6875 C17.64969811 9.3565684 17.64969811 9.3565684 14.25 10.6875 C10.31398894 14.53831028 9.73290156 17.31703317 9.640625 22.73828125 C9.62408875 23.39708786 9.60755249 24.05589447 9.59051514 24.73466492 C9.54222444 26.82320651 9.52070918 28.91102122 9.5 31 C9.47182404 32.42256224 9.44189432 33.8450909 9.41015625 35.26757812 C9.33647437 38.74072825 9.28678285 42.21374072 9.25 45.6875 C5.29 45.6875 1.33 45.6875 -2.75 45.6875 C-2.76981934 44.73383545 -2.78963867 43.7801709 -2.81005859 42.79760742 C-2.88615014 39.25827701 -2.97486161 35.71935583 -3.06738281 32.18041992 C-3.10565798 30.64892661 -3.14051349 29.11734385 -3.171875 27.58569336 C-3.21755807 25.3836267 -3.27554537 23.18217504 -3.3359375 20.98046875 C-3.34748871 20.29599167 -3.35903992 19.61151459 -3.37094116 18.90629578 C-3.48273744 15.30289163 -3.69394553 13.7715817 -5.75 10.6875 C-8.73567609 9.95331735 -10.76081098 9.48134903 -13.75 9.6875 C-16.60993478 11.45214061 -18.24782849 12.68315697 -19.75 15.6875 C-19.90495763 17.93724161 -20.00010928 20.19121536 -20.06640625 22.4453125 C-20.08718735 23.10836395 -20.10796844 23.77141541 -20.12937927 24.45455933 C-20.19479231 26.57376694 -20.25372105 28.693099 -20.3125 30.8125 C-20.35569309 32.24871081 -20.39930764 33.68490902 -20.44335938 35.12109375 C-20.55046499 38.64309594 -20.65175575 42.16523825 -20.75 45.6875 C-24.71 45.6875 -28.67 45.6875 -32.75 45.6875 C-32.75 30.5075 -32.75 15.3275 -32.75 -0.3125 C-29.12 -0.3125 -25.49 -0.3125 -21.75 -0.3125 C-21.75 1.6675 -21.75 3.6475 -21.75 5.6875 C-21.09 5.6875 -20.43 5.6875 -19.75 5.6875 C-19.42 4.6975 -19.09 3.7075 -18.75 2.6875 C-12.74529143 -1.69154357 -7.01772205 -2.45620272 0 0 Z " fill="#090909" transform="translate(614.75,454.3125)"/>
<path d="M0 0 C4.34555126 2.35201869 7.18914341 6.49237942 8.94140625 11.05078125 C9.10951728 13.69789726 9.17446221 16.23509659 9.13671875 18.87890625 C9.13388885 19.62791199 9.13105896 20.37691772 9.12814331 21.14862061 C9.11697885 23.53283901 9.09188156 25.91667704 9.06640625 28.30078125 C9.0563716 29.92056748 9.0472466 31.54035961 9.0390625 33.16015625 C9.0170518 37.12384371 8.982548 41.08724806 8.94140625 45.05078125 C5.31140625 45.05078125 1.68140625 45.05078125 -2.05859375 45.05078125 C-2.38859375 43.73078125 -2.71859375 42.41078125 -3.05859375 41.05078125 C-4.45078125 42.00984375 -4.45078125 42.00984375 -5.87109375 42.98828125 C-11.16480576 46.41362431 -15.89311548 46.74331547 -22.05859375 46.05078125 C-25.43359375 44.36328125 -25.43359375 44.36328125 -28.05859375 42.05078125 C-28.84234375 41.37015625 -29.62609375 40.68953125 -30.43359375 39.98828125 C-32.94419131 35.44989336 -32.7987347 31.11731308 -32.05859375 26.05078125 C-29.92068616 21.94599868 -27.35245446 20.41447513 -23.12475586 18.66162109 C-19.32983407 17.53969101 -15.54367539 17.74000914 -11.62109375 17.86328125 C-10.38069336 17.88358398 -10.38069336 17.88358398 -9.11523438 17.90429688 C-7.09606735 17.93931133 -5.07724057 17.99310563 -3.05859375 18.05078125 C-3.71859375 15.08078125 -4.37859375 12.11078125 -5.05859375 9.05078125 C-7.47556247 8.99667001 -9.89131162 8.95705847 -12.30859375 8.92578125 C-13.33146484 8.90064453 -13.33146484 8.90064453 -14.375 8.875 C-18.19567961 8.83790602 -20.76188444 9.13022124 -24.05859375 11.05078125 C-25.04859375 11.05078125 -26.03859375 11.05078125 -27.05859375 11.05078125 C-30.05859375 5.30078125 -30.05859375 5.30078125 -30.05859375 3.05078125 C-19.83975869 -1.94271581 -10.93625287 -4.12799527 0 0 Z " fill="#0A0A0A" transform="translate(563.05859375,454.94921875)"/>
<path d="M0 0 C2.91467158 2.63418017 5.24187642 5.48375285 7 9 C7.08667255 11.62627133 7.11560135 14.22562483 7.09765625 16.8515625 C7.0962413 17.62559418 7.09482635 18.39962585 7.09336853 19.19711304 C7.08776403 21.67311442 7.07521083 24.14902588 7.0625 26.625 C7.05748558 28.30208203 7.05292257 29.97916547 7.04882812 31.65625 C7.03779315 35.77086806 7.02052554 39.88541878 7 44 C3.37 44 -0.26 44 -4 44 C-4.33 42.68 -4.66 41.36 -5 40 C-6.3921875 40.9590625 -6.3921875 40.9590625 -7.8125 41.9375 C-13.09098708 45.35299164 -17.84680715 45.80891309 -24 45 C-28.01197241 43.40184239 -31.0477305 41.38872635 -33.5 37.8125 C-34.48277065 32.28441512 -35.13534707 27.1344525 -32.4375 22.0625 C-26.52287303 17.05781564 -21.00633522 16.57856803 -13.5625 16.8125 C-12.32209961 16.83280273 -12.32209961 16.83280273 -11.05664062 16.85351562 C-9.0374736 16.88853008 -7.01864682 16.94232438 -5 17 C-5.33 14.36 -5.66 11.72 -6 9 C-9.36992013 7.98740381 -12.48897481 7.83444391 -16 7.8125 C-17.03125 7.79832031 -18.0625 7.78414063 -19.125 7.76953125 C-22.00973853 8.00078067 -23.50517837 8.639677 -26 10 C-26.99 10 -27.98 10 -29 10 C-30.25664978 7.09399739 -31 5.20395416 -31 2 C-20.77236135 -2.79072399 -10.60439827 -5.63480941 0 0 Z " fill="#0A0A0A" transform="translate(475,456)"/>
<path d="M0 0 C3.96 0 7.92 0 12 0 C12 11.88 12 23.76 12 36 C12.66 36 13.32 36 14 36 C14.20496094 35.46632813 14.40992188 34.93265625 14.62109375 34.3828125 C16.57832646 31.00062566 19.2596965 28.56962512 22.0625 25.875 C26.0044894 22.30446634 26.0044894 22.30446634 29 18 C33.62 18 38.24 18 43 18 C41.34029454 21.31941091 40.2009804 23.07896612 37.7421875 25.671875 C37.11699219 26.33574219 36.49179687 26.99960937 35.84765625 27.68359375 C34.87119141 28.70646484 34.87119141 28.70646484 33.875 29.75 C33.21628906 30.44738281 32.55757812 31.14476562 31.87890625 31.86328125 C30.25672226 33.57950489 28.63034621 35.29153435 27 37 C28.31030967 40.63649991 29.88928191 43.46419585 32.22265625 46.5390625 C33.15368164 47.78042969 33.15368164 47.78042969 34.10351562 49.046875 C34.74998047 49.89765625 35.39644531 50.7484375 36.0625 51.625 C37.34861645 53.32282668 38.63133137 55.02323696 39.91015625 56.7265625 C40.47871338 57.47502441 41.04727051 58.22348633 41.63305664 58.99462891 C43 61 43 61 44 64 C39.2661439 65.14975216 34.58257056 65.96347686 30 64 C24.53307941 59.0190585 20.7204145 52.32975498 17 46 C15.02 46.66 13.04 47.32 11 48 C11 53.28 11 58.56 11 64 C7.37 64 3.74 64 0 64 C0 42.88 0 21.76 0 0 Z " fill="#080808" transform="translate(812,436)"/>
<path d="M0 0 C0.66 0.33 1.32 0.66 2 1 C1.45276317 4.37462715 0.9451 6.08235 -1 9 C-6.75 8.125 -6.75 8.125 -9 7 C-10.91403076 6.80331266 -10.91403076 6.80331266 -13 6.8125 C-13.70125 6.79832031 -14.4025 6.78414063 -15.125 6.76953125 C-17.24524938 6.83487677 -17.24524938 6.83487677 -19 9 C-18.99077298 11.54713404 -18.99077298 11.54713404 -18 14 C-15.56030932 15.85416492 -13.19379081 16.18503162 -10.1875 16.875 C-4.91879246 18.14302849 -0.62591595 20.05939064 2.9375 24.3125 C4.33023883 27.83530998 4.46228841 30.2356515 4 34 C0.86888196 39.61441855 -1.90460405 42.95977065 -8 45 C-16.09948195 45.84125054 -24.11157133 45.81224339 -31 41 C-31.66 40.01 -32.32 39.02 -33 38 C-32.01 36.02 -31.02 34.04 -30 32 C-27.49104115 32.41815981 -25.38562396 32.78603565 -23.1484375 34.02734375 C-20.56986216 35.19473513 -18.69366043 35.23377651 -15.875 35.1875 C-14.57175781 35.17783203 -14.57175781 35.17783203 -13.2421875 35.16796875 C-10.9635455 35.1397507 -10.9635455 35.1397507 -9 34 C-9 32.35 -9 30.7 -9 29 C-10.09699219 28.61328125 -11.19398438 28.2265625 -12.32421875 27.828125 C-13.77882847 27.30258858 -15.2332455 26.7765186 -16.6875 26.25 C-17.40873047 25.99734375 -18.12996094 25.7446875 -18.87304688 25.484375 C-23.87482486 23.65724149 -28.09411988 21.6319297 -31.3125 17.1875 C-32.76685459 12.56000811 -32.57602926 9.12990356 -30.375 4.8125 C-21.79302784 -5.35036177 -11.42103546 -4.1668428 0 0 Z " fill="#0A0A0A" transform="translate(522,456)"/>
<path d="M0 0 C0.66 0.99 1.32 1.98 2 3 C0.68 5.31 -0.64 7.62 -2 10 C-4.24482516 9.50114996 -6.1621284 8.92343936 -8.25 7.9375 C-11.88843169 6.69712556 -15.23415473 6.25712818 -19 7 C-22.01971525 8.75065388 -24.41566191 10.83132381 -26 14 C-26.5350086 19.36762727 -26.66175234 23.69931437 -24.1875 28.5625 C-21.86395105 31.1515974 -20.2224264 32.84046299 -16.6953125 33.30078125 C-11.47358034 33.32458854 -8.39653282 33.06425015 -4 30 C-1 31 -1 31 0.8125 33.3125 C2 36 2 36 1.3515625 38.02734375 C-1.27556421 41.8617339 -5.66917684 42.83720364 -10 44 C-17.33256985 45.02697057 -23.76970779 44.1292385 -30 40 C-35.00827067 35.57255722 -38.476011 30.19838096 -39.31640625 23.46484375 C-39.61031191 16.7239753 -38.66842386 10.75208861 -35 5 C-24.81985437 -5.43126877 -12.78567869 -6.53490244 0 0 Z " fill="#080808" transform="translate(802,457)"/>
<path d="M0 0 C7.00905704 2.77515964 10.53053372 7.05020379 14.55859375 13.2265625 C15.68359375 16.3515625 15.68359375 16.3515625 15.68359375 25.3515625 C1.82359375 25.3515625 -12.03640625 25.3515625 -26.31640625 25.3515625 C-26.31640625 16.8908981 -26.15616263 12.90077412 -21.31640625 6.3515625 C-14.84890046 0.84303171 -8.51614577 -2.38394637 0 0 Z " fill="#F7F7F7" transform="translate(257.31640625,383.6484375)"/>
<path d="M0 0 C0.99 0.495 0.99 0.495 2 1 C1.56944313 3.90625889 0.96629555 5.03723539 -1.05078125 7.265625 C-3.45178672 10.63376894 -3.36674949 12.00189849 -2.9375 16.0625 C-2.81117188 17.29355469 -2.68484375 18.52460938 -2.5546875 19.79296875 C-1.73826569 26.21805437 -0.76036934 32.62004993 0.234375 39.01953125 C4.17097826 64.42629036 4.17097826 64.42629036 3 71 C0.7984026 73.89683868 -0.78594462 75.39297231 -4 77 C-6.64411931 77.09828992 -9.26188095 77.13630023 -11.90625 77.12939453 C-13.13081909 77.13202301 -13.13081909 77.13202301 -14.38012695 77.13470459 C-17.08677274 77.13911663 -19.79335352 77.13618738 -22.5 77.1328125 C-24.37565117 77.13348573 -26.25130225 77.13445591 -28.12695312 77.13571167 C-32.06120635 77.13718776 -35.9954369 77.13503691 -39.9296875 77.13037109 C-44.98069056 77.12467386 -50.03164049 77.12795334 -55.0826416 77.13394356 C-58.95670983 77.13755154 -62.83076539 77.13640949 -66.70483398 77.13381577 C-68.56762702 77.13314716 -70.43042119 77.13397263 -72.29321289 77.13629532 C-74.89342305 77.13882571 -77.49354633 77.13497574 -80.09375 77.12939453 C-81.25644409 77.13243088 -81.25644409 77.13243088 -82.44262695 77.13552856 C-87.77147156 77.11426422 -87.77147156 77.11426422 -90 76 C-89.67 75.01 -89.34 74.02 -89 73 C-61.28 73 -33.56 73 -5 73 C-5 72.34 -5 71.68 -5 71 C-4.34 71 -3.68 71 -3 71 C-2.17370165 58.37599748 -4.49387753 46.25631488 -6.54418945 33.84887695 C-9.87227586 13.04789126 -9.87227586 13.04789126 -5.125 5.875 C-3.51322281 3.74932284 -1.88721893 1.88721893 0 0 Z " fill="#F3F8F7" transform="translate(329,488)"/>
<path d="M0 0 C2.68125 -0.0825 5.3625 -0.165 8.125 -0.25 C8.95789551 -0.28641602 9.79079102 -0.32283203 10.64892578 -0.36035156 C15.90410752 -0.43809465 18.85351331 0.49628176 23 4 C25.49455917 7.74183875 25.37606522 9.56243036 25 14 C23.71961812 17.91646222 22.66107905 19.54926428 19.25 21.875 C13.3240304 24.07313623 6.16673708 23.16371868 0 23 C0 15.41 0 7.82 0 0 Z " fill="#F4F4F4" transform="translate(698,448)"/>
<path d="M0 0 C3.63 0 7.26 0 11 0 C11 14.85 11 29.7 11 45 C7.37 45 3.74 45 0 45 C0 30.15 0 15.3 0 0 Z " fill="#020202" transform="translate(743,455)"/>
<path d="M0 0 C1.32 0 2.64 0 4 0 C4 9.9 4 19.8 4 30 C2.68 30 1.36 30 0 30 C0 29.34 0 28.68 0 28 C-0.99 28.66 -1.98 29.32 -3 30 C-7.21178243 30.46797583 -9.28599114 30.46565795 -12.875 28.125 C-15.87388696 25.12611304 -16.21340819 23.33295137 -16.375 19.1875 C-16.32005518 15.39081278 -16.11495655 14.17961961 -14 10.875 C-9.89466366 8.30916479 -7.78837042 8.45937753 -3 9 C-2.01 9.66 -1.02 10.32 0 11 C0 7.37 0 3.74 0 0 Z " fill="#9D9C9D" transform="translate(707,536)"/>
<path d="M0 0 C3.04834094 1.30021073 3.81120257 2.24997246 6 5 C6.94380265 9.34935721 6.48223037 12.86675864 4.75 16.9375 C1.86340563 20.33955765 -0.00041665 20.89095454 -4.4375 21.375 C-8.59650212 20.9372103 -10.11736226 19.96742121 -13 17 C-14.35927332 12.92218003 -14.63404564 9.25929481 -14 5 C-10.4863065 -0.55390263 -6.12288728 -1.29977081 0 0 Z " fill="#949494" transform="translate(528,545)"/>
<path d="M0 0 C1.32 0 2.64 0 4 0 C4 3.96 4 7.92 4 12 C8.95 12 13.9 12 19 12 C19 8.04 19 4.08 19 0 C20.32 0 21.64 0 23 0 C23 9.57 23 19.14 23 29 C21.68 29 20.36 29 19 29 C19 24.71 19 20.42 19 16 C14.05 16 9.1 16 4 16 C4 20.29 4 24.58 4 29 C2.68 29 1.36 29 0 29 C0 19.43 0 9.86 0 0 Z " fill="#A1A1A1" transform="translate(485,537)"/>
<path d="M0 0 C0.33 0 0.66 0 1 0 C0.65680029 7.14802149 0.03254421 14.1228922 -1.14550781 21.17651367 C-2.43176502 28.92192077 -3.37227923 36.5819168 -3.5625 44.4375 C-3.60125244 45.22406982 -3.64000488 46.01063965 -3.67993164 46.82104492 C-3.70042587 50.81742008 -3.27353096 52.61056609 -0.92578125 55.953125 C4.4725752 59.72580817 12.01562043 59.06836237 18.375 59.3125 C19.79307762 59.38393845 21.21105065 59.45748604 22.62890625 59.53320312 C26.08506584 59.71319371 29.54178128 59.86440226 33 60 C33 60.66 33 61.32 33 62 C27.96469037 62.1238722 22.93027303 62.21446514 17.89379883 62.2746582 C16.18172755 62.29975714 14.46976296 62.33384429 12.75805664 62.37719727 C10.29286355 62.43805739 7.82909015 62.46625432 5.36328125 62.48828125 C4.22080681 62.52699089 4.22080681 62.52699089 3.05525208 62.56648254 C-1.01384449 62.56861578 -2.76781533 62.18810525 -5.97192383 59.59228516 C-9.05564421 55.65067651 -9.16644172 52.89808121 -9 48 C-8.60154518 45.88905189 -8.15102447 43.78761654 -7.6640625 41.6953125 C-5.90453379 33.77898401 -4.61445391 25.82413942 -3.375 17.8125 C-3.0506086 15.72591989 -2.72504267 13.63954845 -2.39639282 11.55363464 C-2.10308055 9.69090135 -1.81386404 7.82752447 -1.52490234 5.96411133 C-1 3 -1 3 0 0 Z " fill="#8F8E8E" transform="translate(195,492)"/>
<path d="M0 0 C2.48114717 0.63711193 3.51024785 1.35902613 5.22265625 3.2421875 C7.16015625 6.5546875 7.16015625 6.5546875 7.16015625 11.5546875 C1.88015625 11.5546875 -3.39984375 11.5546875 -8.83984375 11.5546875 C-6.85984375 14.5246875 -6.85984375 14.5246875 -4.83984375 17.5546875 C-1.26807462 18.0755705 1.72728747 17.61095482 5.16015625 16.5546875 C5.49015625 17.5446875 5.82015625 18.5346875 6.16015625 19.5546875 C2.46098184 22.02080377 -1.54301419 22.27082576 -5.83984375 21.5546875 C-8.64987835 19.76104839 -10.34924843 18.53587815 -11.83984375 15.5546875 C-12.45869867 10.55964425 -12.5961988 6.774615 -9.90234375 2.4296875 C-6.35505599 0.25787867 -4.10865628 -0.23321254 0 0 Z " fill="#9D9C9C" transform="translate(574.83984375,544.4453125)"/>
<path d="M0 0 C6.6 0 13.2 0 20 0 C20 0.99 20 1.98 20 3 C14.39 3 8.78 3 3 3 C3 6.3 3 9.6 3 13 C7.62 13 12.24 13 17 13 C17 13.99 17 14.98 17 16 C12.71 16 8.42 16 4 16 C4 20.29 4 24.58 4 29 C2.68 29 1.36 29 0 29 C0 19.43 0 9.86 0 0 Z " fill="#989797" transform="translate(633,537)"/>
<path d="M0 0 C1.32 0 2.64 0 4 0 C4 0.66 4 1.32 4 2 C4.99 1.34 5.98 0.68 7 0 C12.69469027 -0.63274336 12.69469027 -0.63274336 15 0 C18.16018381 2.8789109 18.94662164 4.48489885 19.390625 8.76953125 C19.36431837 10.11774585 19.31701804 11.46569518 19.25 12.8125 C19.23195313 13.50537109 19.21390625 14.19824219 19.1953125 14.91210938 C19.14851064 16.60867664 19.07677624 18.30452476 19 20 C17.68 20.33 16.36 20.66 15 21 C14.93941406 19.85660156 14.87882813 18.71320312 14.81640625 17.53515625 C14.73201572 16.04425695 14.64736698 14.55337225 14.5625 13.0625 C14.52318359 12.30775391 14.48386719 11.55300781 14.44335938 10.77539062 C14.55961976 7.08055813 14.55961976 7.08055813 13 4 C9.5 3.83333333 9.5 3.83333333 6 4 C3.94077598 6.05922402 4.58572421 10.21708124 4.4375 13.0625 C4.39431641 13.82111328 4.35113281 14.57972656 4.30664062 15.36132812 C4.20026367 17.24065438 4.09960066 19.12030244 4 21 C2.68 21 1.36 21 0 21 C0 14.07 0 7.14 0 0 Z " fill="#999999" transform="translate(667,545)"/>
<path d="M0 0 C1.26328125 0.02707031 2.5265625 0.05414063 3.828125 0.08203125 C4.79234375 0.11683594 5.7565625 0.15164063 6.75 0.1875 C6.984375 6.890625 6.984375 6.890625 4.875 9.5625 C1.84370144 11.88055184 0.07836028 12.36329586 -3.6875 12.4375 C-4.46996094 12.46328125 -5.25242187 12.4890625 -6.05859375 12.515625 C-8.78223579 12.10780694 -9.62383926 11.37616917 -11.25 9.1875 C-11.6875 6.1875 -11.6875 6.1875 -11.25 3.1875 C-7.88212399 -0.39765833 -4.72503941 -0.13125109 0 0 Z " fill="#F1F1F1" transform="translate(553.25,479.8125)"/>
<path d="M0 0 C1.27230469 0.01804687 2.54460937 0.03609375 3.85546875 0.0546875 C5.31919922 0.08949219 5.31919922 0.08949219 6.8125 0.125 C6.9765625 6.828125 6.9765625 6.828125 5.5 9.5 C2.7469547 12.15108066 -0.02966372 12.30184327 -3.6875 12.375 C-4.84765625 12.41367187 -4.84765625 12.41367187 -6.03125 12.453125 C-8.1875 12.125 -8.1875 12.125 -9.9765625 10.83203125 C-11.1875 9.125 -11.1875 9.125 -11.0625 5.5625 C-9.46221622 -0.72432912 -5.70324145 -0.10464663 0 0 Z " fill="#F1F1F1" transform="translate(463.1875,479.875)"/>
<path d="M0 0 C2.375 1.625 2.375 1.625 4 4 C4.64850195 7.80994895 4.28071139 9.50335677 2.375 12.875 C0 15 0 15 -3 15.5625 C-6 15 -6 15 -8.375 13.4375 C-10.62340519 10.06489221 -10.56783945 7.97487617 -10 4 C-7.26646839 -0.10029741 -4.80388991 -0.80064832 0 0 Z " fill="#F7F7F7" transform="translate(527,548)"/>
<path d="M0 0 C0.99 0 1.98 0 3 0 C3 0.66 3 1.32 3 2 C3.99 1.34 4.98 0.68 6 0 C11.69469027 -0.63274336 11.69469027 -0.63274336 14 0 C17.16018381 2.8789109 17.94662164 4.48489885 18.390625 8.76953125 C18.36431837 10.11774585 18.31701804 11.46569518 18.25 12.8125 C18.23195313 13.50537109 18.21390625 14.19824219 18.1953125 14.91210938 C18.14851064 16.60867664 18.07677624 18.30452476 18 20 C16.68 20.33 15.36 20.66 14 21 C13.93941406 19.85660156 13.87882813 18.71320312 13.81640625 17.53515625 C13.73201572 16.04425695 13.64736698 14.55337225 13.5625 13.0625 C13.52318359 12.30775391 13.48386719 11.55300781 13.44335938 10.77539062 C13.55961976 7.08055813 13.55961976 7.08055813 12 4 C8.5 3.83333333 8.5 3.83333333 5 4 C3.00383446 5.99616554 3.59016573 9.81701963 3.4375 12.5625 C3.39431641 13.27341797 3.35113281 13.98433594 3.30664062 14.71679688 C3.20028223 16.47761912 3.09961154 18.2387832 3 20 C2.01 20 1.02 20 0 20 C0 13.4 0 6.8 0 0 Z " fill="#9A9A9A" transform="translate(540,545)"/>
<path d="M0 0 C3.5 0.375 3.5 0.375 6.5 2.375 C6.8984375 4.65234375 6.8984375 4.65234375 6.875 7.3125 C6.88273438 8.18777344 6.89046875 9.06304688 6.8984375 9.96484375 C6.42874047 12.80605027 5.80133567 13.69096378 3.5 15.375 C0.5625 15.875 0.5625 15.875 -2.5 15.375 C-5.40672632 12.77424487 -6.38481128 11.18132104 -6.9375 7.3125 C-6.19104008 2.3005548 -5.19396029 0.55649574 0 0 Z " fill="#F8F8F9" transform="translate(700.5,547.625)"/>
<path d="M0 0 C0.99 0.33 1.98 0.66 3 1 C2.67 1.99 2.34 2.98 2 4 C-0.97 4 -3.94 4 -7 4 C-7 4.99 -7 5.98 -7 7 C-6.37351562 7.19335938 -5.74703125 7.38671875 -5.1015625 7.5859375 C-3.87566406 7.97652344 -3.87566406 7.97652344 -2.625 8.375 C-1.81289063 8.63023437 -1.00078125 8.88546875 -0.1640625 9.1484375 C2 10 2 10 4 12 C4.4375 14.375 4.4375 14.375 4 17 C1.87586085 19.4560359 0.25428765 20.80233988 -3.0078125 21.31640625 C-6.83733565 21.42238936 -8.77669074 21.14887284 -12 19 C-11.505 17.515 -11.505 17.515 -11 16 C-10.01 16.33 -9.02 16.66 -8 17 C-5.66700175 17.03954234 -3.33291811 17.04401732 -1 17 C-0.67 15.68 -0.34 14.36 0 13 C-3.3 12.01 -6.6 11.02 -10 10 C-11.31690141 3.65492958 -11.31690141 3.65492958 -10.0625 1.0625 C-6.82680019 -0.60437566 -3.56913488 -0.3741835 0 0 Z " fill="#8F8E8F" transform="translate(597,545)"/>
<path d="M0 0 C3.375 0.875 3.375 0.875 5.375 2.875 C5.80611339 6.75502054 5.90673772 9.02421964 3.8125 12.375 C1.375 13.875 1.375 13.875 -2.25 13.75 C-5.625 12.875 -5.625 12.875 -7.625 10.875 C-8.05611339 6.99497946 -8.15673772 4.72578036 -6.0625 1.375 C-3.625 -0.125 -3.625 -0.125 0 0 Z " fill="#0B0B0B" transform="translate(670.625,487.125)"/>
<path d="M0 0 C1.9375 1.25 1.9375 1.25 3 3 C3.58649994 6.26764255 3.30408821 7.54994945 1.4375 10.3125 C-1.89345318 12.61854451 -4.0324729 12.504958 -8 12 C-9.9375 10.9375 -9.9375 10.9375 -11 9 C-11.4375 5.5 -11.4375 5.5 -11 2 C-7.88297247 -1.98979524 -4.57145176 -1.16364227 0 0 Z " fill="#0F0F0F" transform="translate(753,435)"/>
<path d="M0 0 C0.7940625 0.01417969 1.588125 0.02835938 2.40625 0.04296875 C3.59734375 0.05263672 3.59734375 0.05263672 4.8125 0.0625 C6.90625 0.23046875 6.90625 0.23046875 8.90625 1.23046875 C8.90625 2.22046875 8.90625 3.21046875 8.90625 4.23046875 C5.93625 4.23046875 2.96625 4.23046875 -0.09375 4.23046875 C-0.09375 5.22046875 -0.09375 6.21046875 -0.09375 7.23046875 C0.54433594 7.43542969 1.18242188 7.64039063 1.83984375 7.8515625 C2.66613281 8.12097656 3.49242187 8.39039063 4.34375 8.66796875 C5.16746094 8.93480469 5.99117187 9.20164062 6.83984375 9.4765625 C8.90625 10.23046875 8.90625 10.23046875 9.90625 11.23046875 C10.28125 14.60546875 10.28125 14.60546875 9.90625 18.23046875 C7.05429876 20.90957446 5.17394033 21.207392 1.28125 21.54296875 C-2.09375 21.23046875 -2.09375 21.23046875 -5.09375 19.23046875 C-5.09375 18.24046875 -5.09375 17.25046875 -5.09375 16.23046875 C-4.578125 16.39546875 -4.0625 16.56046875 -3.53125 16.73046875 C-0.36011124 17.38095875 2.67843334 17.29254215 5.90625 17.23046875 C5.90625 15.91046875 5.90625 14.59046875 5.90625 13.23046875 C5.26816406 13.02550781 4.63007812 12.82054687 3.97265625 12.609375 C3.14636719 12.33996094 2.32007813 12.07054687 1.46875 11.79296875 C0.64503906 11.52613281 -0.17867187 11.25929688 -1.02734375 10.984375 C-3.09375 10.23046875 -3.09375 10.23046875 -4.09375 9.23046875 C-4.28125 5.79296875 -4.28125 5.79296875 -4.09375 2.23046875 C-2.09375 0.23046875 -2.09375 0.23046875 0 0 Z " fill="#8D8C8D" transform="translate(721.09375,544.76953125)"/>
<path d="M0 0 C0.99 0 1.98 0 3 0 C3 2.31 3 4.62 3 7 C5.31 7 7.62 7 10 7 C10 7.99 10 8.98 10 10 C8.02 10 6.04 10 4 10 C4.33 14.29 4.66 18.58 5 23 C6.98 23.33 8.96 23.66 11 24 C11 24.99 11 25.98 11 27 C4.78590078 27.35850572 4.78590078 27.35850572 1.81640625 26.00390625 C-0.94168505 22.96110875 -0.71539579 19.66765272 -0.8125 15.75 C-0.86954102 14.64205078 -0.86954102 14.64205078 -0.92773438 13.51171875 C-1.12011731 8.86996889 -0.79286722 4.57563065 0 0 Z " fill="#858585" transform="translate(606,539)"/>
<path d="M0 0 C0.33 1.32 0.66 2.64 1 4 C5.62 4 10.24 4 15 4 C15.33 3.34 15.66 2.68 16 2 C16 3.32 16 4.64 16 6 C11.05 6 6.1 6 1 6 C2.98 8.97 2.98 8.97 5 12 C8.57176913 12.520883 11.56713122 12.05626732 15 11 C15.33 11.99 15.66 12.98 16 14 C12.26933415 16.48711057 8.32682178 16.64259729 4 16 C1 14.6875 1 14.6875 -1 12 C-1.4648482 8.29202484 -1.42937774 4.71105048 -1 1 C-0.67 0.67 -0.34 0.34 0 0 Z " fill="#848383" transform="translate(565,550)"/>
<path d="M0 0 C0.99 0 1.98 0 3 0 C3.5838212 3.7842868 3.03045636 4.95700906 0.76953125 8.1484375 C-0.20288828 9.23595975 -1.18912149 10.31125909 -2.1875 11.375 C-2.67025391 11.93316406 -3.15300781 12.49132812 -3.65039062 13.06640625 C-5.10546875 14.6484375 -5.10546875 14.6484375 -8 17 C-10.86328125 16.8515625 -10.86328125 16.8515625 -13 16 C-13 14.68 -13 13.36 -13 12 C-12.26007813 11.77570312 -11.52015625 11.55140625 -10.7578125 11.3203125 C-7.38650302 9.70628615 -6.05911224 7.88136627 -3.875 4.875 C-1.8671875 2.1171875 -1.8671875 2.1171875 0 0 Z " fill="#E1F5F5" transform="translate(292,524)"/>
<path d="M0 0 C0.33 0 0.66 0 1 0 C0.46869646 9.79840714 -0.62124608 19.40694201 -2.10180664 29.1003418 C-2.44377521 31.35385248 -2.76996567 33.60932664 -3.09570312 35.86523438 C-3.31156073 37.30222474 -3.52832186 38.73907974 -3.74609375 40.17578125 C-4.03504517 42.10804565 -4.03504517 42.10804565 -4.32983398 44.0793457 C-4.55098877 45.04316162 -4.77214355 46.00697754 -5 47 C-5.99 47.495 -5.99 47.495 -7 48 C-6.50101917 38.49236715 -5.4138302 29.24348472 -3.84326172 19.86401367 C-3.49405307 17.77695802 -3.15456529 15.68848129 -2.81640625 13.59960938 C-1.15575534 3.46726601 -1.15575534 3.46726601 0 0 Z " fill="#8C8B8B" transform="translate(195,492)"/>
<path d="M0 0 C0.66 0 1.32 0 2 0 C2 3.96 2 7.92 2 12 C7.28 12 12.56 12 18 12 C17.67 12.66 17.34 13.32 17 14 C13.83984375 14.4140625 13.83984375 14.4140625 9.9375 14.625 C8.64714844 14.69976563 7.35679687 14.77453125 6.02734375 14.8515625 C5.02832031 14.90054688 4.02929688 14.94953125 3 15 C2.67 18.96 2.34 22.92 2 27 C1.34 27 0.68 27 0 27 C0 18.09 0 9.18 0 0 Z " fill="#838282" transform="translate(486,538)"/>
<path d="M0 0 C1.32 0 2.64 0 4 0 C4 6.93 4 13.86 4 21 C2.68 21 1.36 21 0 21 C0 14.07 0 7.14 0 0 Z " fill="#969595" transform="translate(657,545)"/>
<path d="M0 0 C1.32 0.66 2.64 1.32 4 2 C4.3125 4.25 4.3125 4.25 4 7 C1.87586085 9.4560359 0.25428765 10.80233988 -3.0078125 11.31640625 C-6.83733565 11.42238936 -8.77669074 11.14887284 -12 9 C-11.67 8.01 -11.34 7.02 -11 6 C-10.01 6.33 -9.02 6.66 -8 7 C-5.66700175 7.03954234 -3.33291811 7.04401732 -1 7 C-0.67 5.68 -0.34 4.36 0 3 C-0.66 2.67 -1.32 2.34 -2 2 C-1.34 2 -0.68 2 0 2 C0 1.34 0 0.68 0 0 Z " fill="#929293" transform="translate(597,555)"/>
<path d="M0 0 C1.66666667 1.66666667 3.33333333 3.33333333 5 5 C5.763125 5.721875 6.52625 6.44375 7.3125 7.1875 C9 9 9 9 9 11 C9.99 10.67 10.98 10.34 12 10 C12 10.66 12 11.32 12 12 C11.01 12.33 10.02 12.66 9 13 C8.01 14.485 8.01 14.485 7 16 C6.34 15.67 5.68 15.34 5 15 C5.66 14.01 6.32 13.02 7 12 C6.01 11.67 5.02 11.34 4 11 C2.31237149 9.3545622 0.6459651 7.68711423 -1 6 C-1.99 5.34 -2.98 4.68 -4 4 C-3.01 3.67 -2.02 3.34 -1 3 C-0.67 2.01 -0.34 1.02 0 0 Z " fill="#2AADB5" transform="translate(266,514)"/>
<path d="M0 0 C3.5 0.25 3.5 0.25 5.5 2.25 C5.5 3.57 5.5 4.89 5.5 6.25 C1.54 6.25 -2.42 6.25 -6.5 6.25 C-5.02727273 0.35909091 -5.02727273 0.35909091 0 0 Z " fill="#F0F0F0" transform="translate(572.5,547.75)"/>
<path d="M0 0 C0.66 0 1.32 0 2 0 C3.14982602 4.09003859 3.11094256 8.03177051 3.0625 12.25 C3.05798828 12.99507812 3.05347656 13.74015625 3.04882812 14.5078125 C3.03709246 16.3385764 3.0191585 18.16929873 3 20 C2.01 20 1.02 20 0 20 C0 13.4 0 6.8 0 0 Z " fill="#8D8C8C" transform="translate(540,545)"/>
<path d="M0 0 C0.53625 0.66 1.0725 1.32 1.625 2 C3.86982061 4.27019545 3.86982061 4.27019545 7 4.3125 C9.4495051 4.05734322 11.6523259 3.72236126 14 3 C14.33 3.99 14.66 4.98 15 6 C11.07925671 8.61382886 7.55488983 8.29386386 3 8 C0.4345406 5.4345406 0.45953913 3.52313332 0 0 Z " fill="#9C9B9C" transform="translate(566,558)"/>
<path d="M0 0 C0.33 1.32 0.66 2.64 1 4 C-7.04537205 10.34845735 -7.04537205 10.34845735 -12 12 C-13.33914661 12.65491112 -14.6734224 13.31998963 -16 14 C-12.38496602 9.32096666 -9.46200565 6.49352432 -4 4 C-1.68581709 1.93832739 -1.68581709 1.93832739 0 0 Z " fill="#0A8589" transform="translate(329,477)"/>
<path d="M0 0 C2.31 0 4.62 0 7 0 C7 0.33 7 0.66 7 1 C5.02 1 3.04 1 1 1 C1.33 5.29 1.66 9.58 2 14 C4.97 14.495 4.97 14.495 8 15 C8 15.99 8 16.98 8 18 C1.47692308 18.36923077 1.47692308 18.36923077 -0.9375 16.5 C-1.288125 16.005 -1.63875 15.51 -2 15 C-1.34 15 -0.68 15 0 15 C0 10.05 0 5.1 0 0 Z " fill="#AAA9AA" transform="translate(609,548)"/>
<path d="M0 0 C0 2.62113708 -0.31292445 4.50935112 -1 7 C-2.65 7.33 -4.3 7.66 -6 8 C-6 8.66 -6 9.32 -6 10 C-11.625 10.25 -11.625 10.25 -15 8 C-15.1875 5.375 -15.1875 5.375 -15 3 C-13.02 3 -11.04 3 -9 3 C-10.98 3.99 -10.98 3.99 -13 5 C-13 5.66 -13 6.32 -13 7 C-10.72030158 7.8573478 -10.72030158 7.8573478 -8 8 C-5.65954942 6.38550814 -5.65954942 6.38550814 -3.6875 4.0625 C-2.99011719 3.31097656 -2.29273438 2.55945313 -1.57421875 1.78515625 C-1.05472656 1.19605469 -0.53523438 0.60695313 0 0 Z " fill="#21ACB1" transform="translate(292,532)"/>
<path d="M0 0 C0.66 0.33 1.32 0.66 2 1 C1.42341728 4.89193339 -0.4999525 7.04539841 -3 10 C-3.99 11.485 -3.99 11.485 -5 13 C-5.99 12.34 -6.98 11.68 -8 11 C-7.04454634 9.53977837 -6.08553322 8.08188532 -5.125 6.625 C-4.59132813 5.81289063 -4.05765625 5.00078125 -3.5078125 4.1640625 C-2 2 -2 2 0 0 Z " fill="#B6EDEB" transform="translate(329,488)"/>
<path d="M0 0 C0.226875 0.53625 0.45375 1.0725 0.6875 1.625 C1.86198149 3.75025221 3.04815247 5.30246801 4.625 7.125 C7 10 7 10 7 12 C4.6875 11.8125 4.6875 11.8125 2 11 C-0.13258157 8.35265737 -0.94177194 6.64050865 -1.25 3.25 C-1 1 -1 1 0 0 Z " fill="#8D8D8D" transform="translate(515,553)"/>
<path d="M0 0 C1.60568666 0.28317926 3.20952047 0.57687791 4.8125 0.875 C6.15248047 1.11863281 6.15248047 1.11863281 7.51953125 1.3671875 C10 2 10 2 13 4 C9.47005387 5.17664871 6.70544587 5.19850603 3 5 C2.01 4.34 1.02 3.68 0 3 C0 2.01 0 1.02 0 0 Z " fill="#979797" transform="translate(716,561)"/>
<path d="M0 0 C0 3 0 3 -1 6 C1.64 6.33 4.28 6.66 7 7 C7 7.33 7 7.66 7 8 C2.05 8.33 -2.9 8.66 -8 9 C-2.25 2.25 -2.25 2.25 0 0 Z " fill="#3BB9BE" transform="translate(248,553)"/>
<path d="M0 0 C-0.556875 0.268125 -1.11375 0.53625 -1.6875 0.8125 C-3.3885708 1.68602284 -5.0511301 2.63556704 -6.6875 3.625 C-9 5 -9 5 -10 5 C-10.33 7.97 -10.66 10.94 -11 14 C-11.33 14 -11.66 14 -12 14 C-12.6132879 5.07325383 -12.6132879 5.07325383 -10.5 1.375 C-6.85379595 -0.63041222 -4.12814187 -0.27520946 0 0 Z " fill="#949393" transform="translate(575,546)"/>
<path d="M0 0 C1.8871875 0.061875 1.8871875 0.061875 3.8125 0.125 C3.4825 1.115 3.1525 2.105 2.8125 3.125 C0.49402126 3.8416207 -1.84069703 4.50742027 -4.1875 5.125 C-4.8475 5.785 -5.5075 6.445 -6.1875 7.125 C-6.1875 6.465 -6.1875 5.805 -6.1875 5.125 C-6.8475 5.125 -7.5075 5.125 -8.1875 5.125 C-6.68328007 0.61234022 -4.4443381 -0.145716 0 0 Z " fill="#999999" transform="translate(700.1875,544.875)"/>
<path d="M0 0 C2 2 2 2 2.1953125 3.9453125 C2.13020833 5.96354167 2.06510417 7.98177083 2 10 C1.34 10 0.68 10 0 10 C0 9.34 0 8.68 0 8 C-1.65 8.33 -3.3 8.66 -5 9 C-4.360625 8.071875 -3.72125 7.14375 -3.0625 6.1875 C-0.91377907 3.15780057 -0.91377907 3.15780057 0 0 Z " fill="#838383" transform="translate(708,555)"/>
<path d="M0 0 C0.99 0 1.98 0 3 0 C3.05395478 1.62463842 3.09277195 3.24978541 3.125 4.875 C3.14820313 5.77992188 3.17140625 6.68484375 3.1953125 7.6171875 C3 10 3 10 1 12 C-0.26237731 9.47524538 -0.09856404 7.68799534 -0.0625 4.875 C-0.05347656 3.96492187 -0.04445313 3.05484375 -0.03515625 2.1171875 C-0.02355469 1.41851563 -0.01195312 0.71984375 0 0 Z " fill="#908F8F" transform="translate(691,550)"/>
<path d="M0 0 C0.33 0.66 0.66 1.32 1 2 C-1.78999451 5.48749314 -4.25235831 8.50157221 -8 11 C-8.66 10.67 -9.32 10.34 -10 10 C-6.7 6.7 -3.4 3.4 0 0 Z " fill="#30BBC0" transform="translate(264,536)"/>
<path d="M0 0 C0.33 0 0.66 0 1 0 C1 2.97 1 5.94 1 9 C0.67 8.34 0.34 7.68 0 7 C-2.5 8 -2.5 8 -4 12 C-3.67 8.37 -3.34 4.74 -3 1 C-2.34 2.32 -1.68 3.64 -1 5 C-0.67 3.35 -0.34 1.7 0 0 Z " fill="#BABBBB" transform="translate(190,534)"/>
<path d="M0 0 C0.80566406 0.00257813 1.61132812 0.00515625 2.44140625 0.0078125 C3.64603516 0.00394531 3.64603516 0.00394531 4.875 0 C7.00390625 0.1328125 7.00390625 0.1328125 9.00390625 1.1328125 C9.00390625 2.1228125 9.00390625 3.1128125 9.00390625 4.1328125 C0.43247768 3.27566964 0.43247768 3.27566964 -2.99609375 1.1328125 C-1.99609375 0.1328125 -1.99609375 0.1328125 0 0 Z " fill="#949394" transform="translate(720.99609375,544.8671875)"/>
<path d="M0 0 C1.32 1.65 2.64 3.3 4 5 C3.01 5.99 2.02 6.98 1 8 C-0.65 6.68 -2.3 5.36 -4 4 C-3.01 3.67 -2.02 3.34 -1 3 C-0.67 2.01 -0.34 1.02 0 0 Z " fill="#37B8BC" transform="translate(266,514)"/>
<path d="M0 0 C0 2.62113708 -0.31292445 4.50935112 -1 7 C-2.65 7.33 -4.3 7.66 -6 8 C-4.55746343 4.63408134 -2.66735273 2.48952921 0 0 Z " fill="#19A4AB" transform="translate(292,532)"/>
<path d="M0 0 C1.32 0.66 2.64 1.32 4 2 C4 3.65 4 5.3 4 7 C3.34 6.34 2.68 5.68 2 5 C1.01 5.495 1.01 5.495 0 6 C0 5.01 0 4.02 0 3 C-0.66 2.67 -1.32 2.34 -2 2 C-1.34 2 -0.68 2 0 2 C0 1.34 0 0.68 0 0 Z " fill="#A0A0A0" transform="translate(597,555)"/>
<path d="M0 0 C0.99 0.33 1.98 0.66 3 1 C3 1.66 3 2.32 3 3 C0.29120665 4.35439668 -2.00933268 4.06501451 -5 4 C-2.6875 1.9375 -2.6875 1.9375 0 0 Z " fill="#908F8F" transform="translate(578,561)"/>
<path d="M0 0 C1.32 0.66 2.64 1.32 4 2 C3.67 2.99 3.34 3.98 3 5 C1.68 4.67 0.36 4.34 -1 4 C-0.67 2.68 -0.34 1.36 0 0 Z " fill="#959494" transform="translate(658,536)"/>
<path d="M0 0 C0.33 0.66 0.66 1.32 1 2 C1.66 1.67 2.32 1.34 3 1 C4.99960012 0.960008 7.00047242 0.95653201 9 1 C6.33333333 2.33333333 3.66666667 3.66666667 1 5 C0.67 3.35 0.34 1.7 0 0 Z " fill="#979697" transform="translate(542,545)"/>
</svg>
